M48
;DRILL file {KiCad 4.0.2-stable} date 2016 May 27, Friday 16:50:02
;FORMAT={-:-/ absolute / inch / decimal}
FMAT,2
INCH,TZ
T1C0.016
T2C0.030
T3C0.031
T4C0.032
T5C0.039
T6C0.039
T7C0.040
T8C0.045
T9C0.050
T10C0.079
T11C0.118
T12C0.120
T13C0.150
%
G90
G05
M72
T1
X6.85Y-4.85
X6.975Y-4.25
X7.125Y-4.25
X7.375Y-3.775
X7.4Y-4.8
X7.45Y-2.925
X7.575Y-3.9
X7.65Y-3.775
T2
X6.425Y-3.025
X6.525Y-3.025
T3
X6.45Y-4.35
X6.45Y-4.65
X6.55Y-4.35
X6.55Y-4.65
X6.65Y-4.35
X6.65Y-4.65
X6.75Y-4.175
X6.75Y-4.35
X6.75Y-4.65
X6.85Y-4.35
X6.85Y-4.65
X6.95Y-4.35
X6.95Y-4.65
X7.05Y-4.35
X7.05Y-4.65
X7.1Y-3.5
X7.1Y-3.6969
X7.15Y-4.35
X7.15Y-4.65
X7.25Y-4.35
X7.25Y-4.65
X7.35Y-4.35
X7.35Y-4.65
X7.45Y-4.35
X7.45Y-4.65
X7.5Y-4.05
X7.525Y-2.65
X7.525Y-2.75
X7.525Y-2.85
X7.525Y-2.95
X7.55Y-4.35
X7.55Y-4.65
X7.65Y-4.35
X7.65Y-4.65
X7.75Y-4.35
X7.75Y-4.65
X7.825Y-2.65
X7.825Y-2.75
X7.825Y-2.85
X7.825Y-2.95
T4
X6.75Y-4.0766
X7.0039Y-4.05
X7.1961Y-4.05
X7.4016Y-4.05
T5
X6.3888Y-4.7925
X6.3888Y-4.95
X6.625Y-4.7925
X6.625Y-4.95
X7.5Y-3.675
X7.6Y-3.
X7.6Y-3.675
X7.7Y-3.675
T6
X6.475Y-3.3
X6.475Y-3.7
X6.475Y-3.85
X6.475Y-3.95
X6.65Y-3.3
X6.65Y-3.7
X6.75Y-3.85
X6.75Y-3.95
X6.7999Y-3.7
X6.9499Y-3.7
X7.Y-3.85
X7.1Y-3.35
X7.2Y-3.35
X7.3Y-3.35
X7.4Y-3.85
T7
X6.725Y-3.125
X6.825Y-3.125
X7.6Y-4.85
X7.6Y-4.95
X7.7Y-4.85
X7.7Y-4.95
X7.8Y-4.85
X7.8Y-4.95
T8
X7.05Y-4.85
X7.05Y-4.95
X7.15Y-4.85
X7.15Y-4.95
X7.25Y-4.85
X7.25Y-4.95
T9
X6.7999Y-3.3
X6.9499Y-3.3
T10
X7.5Y-3.175
X7.65Y-3.175
X7.8Y-3.175
T11
X6.5441Y-2.7239
X6.7441Y-2.6339
X6.7441Y-2.8739
T12
X6.425Y-4.175
X7.8Y-4.175
T13
X7.2Y-2.69
T0
M30
