G04 #@! TF.FileFunction,Soldermask,Bot*
%FSLAX46Y46*%
G04 Gerber Fmt 4.6, Leading zero omitted, Abs format (unit mm)*
G04 Created by KiCad (PCBNEW 4.0.2-stable) date 2016 May 27, Friday 16:50:11*
%MOMM*%
G01*
G04 APERTURE LIST*
%ADD10C,0.100000*%
%ADD11C,2.400000*%
%ADD12C,2.900000*%
%ADD13C,5.200600*%
%ADD14R,5.200600X5.200600*%
%ADD15O,2.000000X2.700000*%
%ADD16C,2.127200*%
%ADD17O,2.127200X2.127200*%
%ADD18O,2.000000X2.000000*%
%ADD19R,2.400000X2.300000*%
%ADD20C,2.300000*%
%ADD21R,1.700000X1.700000*%
%ADD22C,1.700000*%
%ADD23R,1.924000X1.924000*%
%ADD24C,1.924000*%
%ADD25C,2.398980*%
%ADD26R,2.398980X2.398980*%
%ADD27R,2.432000X2.432000*%
%ADD28O,2.432000X2.432000*%
%ADD29O,2.099260X3.900120*%
%ADD30C,4.199840*%
%ADD31C,1.901140*%
%ADD32C,4.464000*%
%ADD33C,2.100000*%
G04 APERTURE END LIST*
D10*
D11*
X179070000Y-125730000D03*
X179070000Y-123190000D03*
X181610000Y-125730000D03*
X181610000Y-123190000D03*
X184150000Y-125730000D03*
X184150000Y-123190000D03*
D12*
X198120000Y-80645000D03*
X190500000Y-80645000D03*
X194310000Y-80645000D03*
D13*
X171300000Y-66900000D03*
D14*
X171300000Y-72996000D03*
D13*
X166220000Y-69186000D03*
D15*
X196850000Y-110490000D03*
X194310000Y-110490000D03*
X191770000Y-110490000D03*
X189230000Y-110490000D03*
X186690000Y-110490000D03*
X184150000Y-110490000D03*
X181610000Y-110490000D03*
X179070000Y-110490000D03*
X176530000Y-110490000D03*
X173990000Y-110490000D03*
X171450000Y-110490000D03*
X168910000Y-110490000D03*
X166370000Y-110490000D03*
X163830000Y-110490000D03*
X163830000Y-118110000D03*
X166370000Y-118110000D03*
X168910000Y-118110000D03*
X171450000Y-118110000D03*
X173990000Y-118110000D03*
X176530000Y-118110000D03*
X179070000Y-118110000D03*
X181610000Y-118110000D03*
X184150000Y-118110000D03*
X186690000Y-118110000D03*
X189230000Y-118110000D03*
X191770000Y-118110000D03*
X194310000Y-118110000D03*
X196850000Y-118110000D03*
D16*
X198120000Y-123190000D03*
D17*
X198120000Y-125730000D03*
X195580000Y-123190000D03*
X195580000Y-125730000D03*
X193040000Y-123190000D03*
X193040000Y-125730000D03*
D18*
X191135000Y-67310000D03*
X191135000Y-69850000D03*
X191135000Y-72390000D03*
X191135000Y-74930000D03*
X198755000Y-74930000D03*
X198755000Y-72390000D03*
X198755000Y-69850000D03*
X198755000Y-67310000D03*
D19*
X164465000Y-97790000D03*
D20*
X164465000Y-100330000D03*
D19*
X171450000Y-97790000D03*
D20*
X171450000Y-100330000D03*
D21*
X190500000Y-102870000D03*
D22*
X188000000Y-102870000D03*
D21*
X171450000Y-106045000D03*
D22*
X171450000Y-103545000D03*
D23*
X165735000Y-76835000D03*
D24*
X163195000Y-76835000D03*
D21*
X180340000Y-88900000D03*
D22*
X180340000Y-93900000D03*
D25*
X176527460Y-83820000D03*
D26*
X176527460Y-93980000D03*
D25*
X172717460Y-83820000D03*
D26*
X172717460Y-93980000D03*
D11*
X190500000Y-93345000D03*
X193040000Y-93345000D03*
X195580000Y-93345000D03*
D27*
X173355000Y-79375000D03*
D28*
X170815000Y-79375000D03*
D25*
X177800000Y-97790000D03*
X187960000Y-97790000D03*
X164465000Y-93980000D03*
X164465000Y-83820000D03*
X168910000Y-93980000D03*
X168910000Y-83820000D03*
D29*
X182880000Y-85090000D03*
X180340000Y-85090000D03*
X185420000Y-85090000D03*
D30*
X182880000Y-68326000D03*
D31*
X182780940Y-102870000D03*
X177899060Y-102870000D03*
D32*
X198120000Y-106045000D03*
X163195000Y-106045000D03*
D33*
X162275000Y-121730000D03*
X168275000Y-121730000D03*
X162275000Y-125730000D03*
X168275000Y-125730000D03*
M02*
