M48
INCH,TZ
T1C0.016
T2C0.030
T3C0.031
T4C0.032
T5C0.039
T6C0.039
T7C0.040
T8C0.047
T9C0.050
T10C0.120
%
G90
G05
T1
X68500Y-48250
X69750Y-42500
X71500Y-42250
X73250Y-47500
X73750Y-37750
X74000Y-48000
X74500Y-29250
X75250Y-39000
X76500Y-37750
T2
X64250Y-30250
X65250Y-30250
X70500Y-48500
X70500Y-49500
X71500Y-48500
X71500Y-49500
X72500Y-48500
X72500Y-49500
T3
X64500Y-43500
X64500Y-46500
X65500Y-43500
X65500Y-46500
X66500Y-43500
X66500Y-46500
X67500Y-41750
X67500Y-43500
X67500Y-46500
X68500Y-43500
X68500Y-46500
X69500Y-43500
X69500Y-46500
X70500Y-43500
X70500Y-46500
X71000Y-35000
X71000Y-36969
X71500Y-43500
X71500Y-46500
X72500Y-43500
X72500Y-46500
X73500Y-43500
X73500Y-46500
X74500Y-43500
X74500Y-46500
X75000Y-40500
X75250Y-26500
X75250Y-27500
X75250Y-28500
X75250Y-29500
X75500Y-43500
X75500Y-46500
X76500Y-43500
X76500Y-46500
X77500Y-43500
X77500Y-46500
X78250Y-26500
X78250Y-27500
X78250Y-28500
X78250Y-29500
T4
X67500Y-40766
X70039Y-40500
X71961Y-40500
X74016Y-40500
T5
X63888Y-47925
X63888Y-49500
X66250Y-47925
X66250Y-49500
X75250Y-33500
X76000Y-30000
X76250Y-33500
X77250Y-33500
T6
X64750Y-33000
X64750Y-37000
X64750Y-38500
X64750Y-39500
X66500Y-33000
X66500Y-37000
X67500Y-38500
X67500Y-39500
X67999Y-37000
X69499Y-37000
X70000Y-38500
X71000Y-33500
X72000Y-33500
X73000Y-33500
X74000Y-38500
T7
X67250Y-31250
X68250Y-31250
X76000Y-48500
X76000Y-49500
X77000Y-48500
X77000Y-49500
X78000Y-48500
X78000Y-49500
T8
X75250Y-31750
X76250Y-31750
X77250Y-31750
T9
X67999Y-33000
X69499Y-33000
T10
X64250Y-41750
X78000Y-41750
T7
X65441Y-26939G85X65441Y-27539
G05
X67741Y-26339G85X67141Y-26339
G05
X67741Y-28739G85X67141Y-28739
G05
T0
M30
